<svg xmlns="http://www.w3.org/2000/svg" xmlns:xlink="http://www.w3.org/1999/xlink" viewBox="0 0 471.8979 73.9052"><defs><style>.cls-1{mask:url(#mask);filter:url(#luminosity-noclip-2);}.cls-2,.cls-8{mix-blend-mode:multiply;}.cls-2{fill:url(#radial-gradient);}.cls-3{isolation:isolate;}.cls-4{fill:#ee7601;}.cls-5{fill:#5f5e5e;}.cls-6{mask:url(#mask-2);}.cls-7{fill:url(#radial-gradient-2);}.cls-9{fill:url(#radial-gradient-3);}.cls-10{fill:url(#radial-gradient-4);}.cls-11{fill:url(#radial-gradient-5);}.cls-12{fill:url(#radial-gradient-6);}.cls-13{fill:url(#radial-gradient-7);}.cls-14{fill:url(#radial-gradient-8);}.cls-15{fill:url(#radial-gradient-9);}.cls-16{fill:url(#radial-gradient-10);}.cls-17{fill:url(#radial-gradient-11);}.cls-18{fill:url(#radial-gradient-12);}.cls-19{fill:url(#radial-gradient-13);}.cls-20{fill:url(#radial-gradient-14);}.cls-21{fill:url(#radial-gradient-15);}.cls-22{fill:url(#radial-gradient-16);}.cls-23{fill:url(#radial-gradient-17);}.cls-24{fill:url(#radial-gradient-18);}.cls-25{fill:url(#radial-gradient-19);}.cls-26{fill:url(#radial-gradient-20);}.cls-27{fill:url(#radial-gradient-21);}.cls-28{fill:url(#radial-gradient-22);}.cls-29{fill:url(#radial-gradient-23);}.cls-30{fill:url(#radial-gradient-24);}.cls-31{fill:url(#radial-gradient-25);}.cls-32{fill:url(#radial-gradient-26);}.cls-33{fill:url(#radial-gradient-27);}.cls-34{fill:url(#radial-gradient-28);}.cls-35{fill:url(#radial-gradient-29);}.cls-36{fill:url(#radial-gradient-30);}.cls-37{fill:url(#radial-gradient-31);}.cls-38{fill:url(#radial-gradient-32);}.cls-39{fill:url(#radial-gradient-33);}.cls-40{fill:url(#radial-gradient-34);}.cls-41{fill:url(#radial-gradient-35);}.cls-42{fill:url(#radial-gradient-36);}.cls-43{fill:url(#radial-gradient-37);}.cls-44{fill:url(#radial-gradient-38);}.cls-45{fill:url(#radial-gradient-39);}.cls-46{fill:url(#radial-gradient-40);}.cls-47{fill:url(#radial-gradient-41);}.cls-48{fill:url(#radial-gradient-42);}.cls-49{fill:url(#radial-gradient-43);}.cls-50{fill:url(#radial-gradient-44);}.cls-51{fill:url(#radial-gradient-45);}.cls-52{fill:url(#radial-gradient-46);}.cls-53{fill:url(#radial-gradient-47);}.cls-54{filter:url(#luminosity-noclip);}</style><filter id="luminosity-noclip" x="406.4789" y="-8113.0693" width="58.4778" height="32766" filterUnits="userSpaceOnUse" color-interpolation-filters="sRGB"><feFlood flood-color="#fff" result="bg"/><feBlend in="SourceGraphic" in2="bg"/></filter><mask id="mask" x="406.4789" y="-8113.0693" width="58.4778" height="32766" maskUnits="userSpaceOnUse"><g class="cls-54"/></mask><radialGradient id="radial-gradient" cx="436.2559" cy="31.4934" r="29.7478" gradientTransform="translate(6.9655 4.8458) scale(0.9828 1.0208)" gradientUnits="userSpaceOnUse"><stop offset="0.8172"/><stop offset="0.8395" stop-color="#040404"/><stop offset="0.8624" stop-color="#101010"/><stop offset="0.8855" stop-color="#252525"/><stop offset="0.9088" stop-color="#424242"/><stop offset="0.9323" stop-color="#676767"/><stop offset="0.9559" stop-color="#949494"/><stop offset="0.9792" stop-color="#c9c9c9"/><stop offset="1" stop-color="#fff"/></radialGradient><filter id="luminosity-noclip-2" x="406.4789" y="6.6305" width="58.4778" height="60.7275" filterUnits="userSpaceOnUse" color-interpolation-filters="sRGB"><feFlood flood-color="#fff" result="bg"/><feBlend in="SourceGraphic" in2="bg"/></filter><mask id="mask-2" x="406.4789" y="6.6305" width="58.4778" height="60.7275" maskUnits="userSpaceOnUse"><g class="cls-1"><path class="cls-2" d="M464.9565,36.624a32.4457,32.4457,0,0,1-1.1846,8.9492,30.8606,30.8606,0,0,1-4.083,8.8066,30.4021,30.4021,0,0,1-5.5566,6.1993,29.0879,29.0879,0,0,1-7.7393,4.6875,28.4572,28.4572,0,0,1-16.8242,1.414,29.1113,29.1113,0,0,1-14.9209-8.65A30.7561,30.7561,0,0,1,406.6313,39.98a31.2663,31.2663,0,0,1,3.9317-18.4434h0c.7148-1.1533,1.6884-2.6836,2.5244-3.748a31.6573,31.6573,0,0,1,2.9785-3.2618,29.27,29.27,0,0,1,7.5947-5.1933A28.4458,28.4458,0,0,1,440.936,7.11c11.9473,2.2246,21.416,12.0586,23.5606,24.4707a30.7784,30.7784,0,0,1,.46,5.043"/></g></mask><radialGradient id="radial-gradient-2" cx="436.2559" cy="31.4934" r="29.7478" gradientTransform="translate(6.9655 4.8458) scale(0.9828 1.0208)" gradientUnits="userSpaceOnUse"><stop offset="0.8172" stop-color="#f1f0f1"/><stop offset="0.8575" stop-color="#edeced"/><stop offset="0.8987" stop-color="#e1e0e1"/><stop offset="0.9404" stop-color="#cecbcd"/><stop offset="0.9822" stop-color="#b3afb1"/><stop offset="1" stop-color="#a5a0a3"/></radialGradient><radialGradient id="radial-gradient-3" cx="407.062" cy="32.6699" r="0.3904" gradientUnits="userSpaceOnUse"><stop offset="0.0982" stop-color="#f9b233"/><stop offset="0.908" stop-color="#ee7601"/></radialGradient><radialGradient id="radial-gradient-4" cx="407.8183" cy="28.5761" r="1.4753" xlink:href="#radial-gradient-3"/><radialGradient id="radial-gradient-5" cx="407.8178" cy="30.4155" r="0.816" xlink:href="#radial-gradient-3"/><radialGradient id="radial-gradient-6" cx="418.2006" cy="15.915" r="7.3008" xlink:href="#radial-gradient-3"/><radialGradient id="radial-gradient-7" cx="418.1049" cy="17.3926" r="1.4375" xlink:href="#radial-gradient-3"/><radialGradient id="radial-gradient-8" cx="433.7797" cy="66.0947" r="0.3722" xlink:href="#radial-gradient-3"/><radialGradient id="radial-gradient-9" cx="440.9428" cy="36.4775" r="24.3386" xlink:href="#radial-gradient-3"/><radialGradient id="radial-gradient-10" cx="425.4921" cy="28.835" r="0.4192" xlink:href="#radial-gradient-3"/><radialGradient id="radial-gradient-11" cx="421.5727" cy="22.1982" r="2.0355" xlink:href="#radial-gradient-3"/><radialGradient id="radial-gradient-12" cx="464.707" cy="39.4682" r="1.1275" xlink:href="#radial-gradient-3"/><radialGradient id="radial-gradient-13" cx="440.2783" cy="55.3056" r="2.1903" xlink:href="#radial-gradient-3"/><radialGradient id="radial-gradient-14" cx="452.8696" cy="46.4936" r="0.676" xlink:href="#radial-gradient-3"/><radialGradient id="radial-gradient-15" cx="457.4155" cy="48.8583" r="1.0781" xlink:href="#radial-gradient-3"/><radialGradient id="radial-gradient-16" cx="455.7006" cy="51.0019" r="2.3253" xlink:href="#radial-gradient-3"/><radialGradient id="radial-gradient-17" cx="455.9199" cy="54.8916" r="0.9026" xlink:href="#radial-gradient-3"/><radialGradient id="radial-gradient-18" cx="458.3813" cy="51.8378" r="1.9661" xlink:href="#radial-gradient-3"/><radialGradient id="radial-gradient-19" cx="460.8959" cy="48.4335" r="0.5777" xlink:href="#radial-gradient-3"/><radialGradient id="radial-gradient-20" cx="462.2182" cy="46.0038" r="0.8857" xlink:href="#radial-gradient-3"/><radialGradient id="radial-gradient-21" cx="463.1874" cy="43.1406" r="0.432" xlink:href="#radial-gradient-3"/><radialGradient id="radial-gradient-22" cx="461.2793" cy="48.748" r="0.3206" xlink:href="#radial-gradient-3"/><radialGradient id="radial-gradient-23" cx="461.789" cy="47.8476" r="0.4701" xlink:href="#radial-gradient-3"/><radialGradient id="radial-gradient-24" cx="460.769" cy="50.35" r="0.667" xlink:href="#radial-gradient-3"/><radialGradient id="radial-gradient-25" cx="457.9711" cy="53.8027" r="0.8686" xlink:href="#radial-gradient-3"/><radialGradient id="radial-gradient-26" cx="444.0282" cy="11.6436" r="1.6966" xlink:href="#radial-gradient-3"/><radialGradient id="radial-gradient-27" cx="431.8281" cy="9.2182" r="1.6963" xlink:href="#radial-gradient-3"/><radialGradient id="radial-gradient-28" cx="439.4135" cy="8.4252" r="0.5325" xlink:href="#radial-gradient-3"/><radialGradient id="radial-gradient-29" cx="449.3554" cy="10.2958" r="1.1151" xlink:href="#radial-gradient-3"/><radialGradient id="radial-gradient-30" cx="451.1103" cy="11.2826" r="0.5329" xlink:href="#radial-gradient-3"/><radialGradient id="radial-gradient-31" cx="450.6425" cy="61.3178" r="4.7923" xlink:href="#radial-gradient-3"/><radialGradient id="radial-gradient-32" cx="456.6484" cy="56.3163" r="0.4447" xlink:href="#radial-gradient-3"/><radialGradient id="radial-gradient-33" cx="457.5419" cy="56.3442" r="2.3256" xlink:href="#radial-gradient-3"/><radialGradient id="radial-gradient-34" cx="459.1098" cy="52.6894" r="0.2706" xlink:href="#radial-gradient-3"/><radialGradient id="radial-gradient-35" cx="458.7973" cy="53.4267" r="0.277" xlink:href="#radial-gradient-3"/><radialGradient id="radial-gradient-36" cx="459.3901" cy="53.061" r="0.2744" xlink:href="#radial-gradient-3"/><radialGradient id="radial-gradient-37" cx="458.4282" cy="54.5234" r="0.3687" xlink:href="#radial-gradient-3"/><radialGradient id="radial-gradient-38" cx="457.5346" cy="57.1821" r="0.1098" xlink:href="#radial-gradient-3"/><radialGradient id="radial-gradient-39" cx="457.416" cy="57.3398" r="0.2767" xlink:href="#radial-gradient-3"/><radialGradient id="radial-gradient-40" cx="443.9643" cy="66.0068" r="0.9875" xlink:href="#radial-gradient-3"/><radialGradient id="radial-gradient-41" cx="441.7988" cy="66.3349" r="0.9663" xlink:href="#radial-gradient-3"/><radialGradient id="radial-gradient-42" cx="443.7651" cy="65.4492" r="0.6598" xlink:href="#radial-gradient-3"/><radialGradient id="radial-gradient-43" cx="441.8959" cy="8.4551" r="1.1172" xlink:href="#radial-gradient-3"/><radialGradient id="radial-gradient-44" cx="419.4604" cy="23.2314" r="1.1302" xlink:href="#radial-gradient-3"/><radialGradient id="radial-gradient-45" cx="420.8388" cy="18.5117" r="0.2624" xlink:href="#radial-gradient-3"/><radialGradient id="radial-gradient-46" cx="422.6826" cy="18.9804" r="0.2074" xlink:href="#radial-gradient-3"/><radialGradient id="radial-gradient-47" cx="441.7924" cy="56.5063" r="0.0926" xlink:href="#radial-gradient-3"/></defs><title>zoologo_logo</title><g class="cls-3"><g id="Ebene_2" data-name="Ebene 2"><g id="ZL_Orange" data-name="ZL Orange"><path class="cls-4" d="M2.0005,8.4013V1.4H41.3027v6.7L8.0005,65.6045H42.0029v6.9H0v-6.7L33.2021,8.4013Z"/><path class="cls-4" d="M58.0005,10.3007A34.7487,34.7487,0,0,1,83.102,0a35.1864,35.1864,0,0,1,25.502,10.4013,35.6584,35.6584,0,0,1,10.9,26.1016c0,10.1006-3.1006,18.501-9.4,25.4014A35.1752,35.1752,0,0,1,83.0019,73.9052,34.4879,34.4879,0,0,1,57.3,63.2041c-6.9-7.2-10.4009-16.1006-10.4009-26.7012A36.4009,36.4009,0,0,1,58.0005,10.3007Zm4.6,48.1036a27.799,27.799,0,0,0,20.9013,8.8,26.82,26.82,0,0,0,20.4009-8.9q8.4009-8.8506,8.4-21.9014a28.6286,28.6286,0,0,0-8.6-20.8008A27.676,27.676,0,0,0,83.0019,6.8007a27.1674,27.1674,0,0,0-17.9013,6.6006A30.8706,30.8706,0,0,0,54.2,36.6025C54.2,45.3037,57,52.5039,62.6006,58.4043Z"/><path class="cls-4" d="M136.7,10.3007A34.7475,34.7475,0,0,1,161.8,0a35.1847,35.1847,0,0,1,25.5019,10.4013,35.6546,35.6546,0,0,1,10.9,26.1016c0,10.1006-3.1006,18.501-9.4,25.4014a35.1732,35.1732,0,0,1-27.1015,12.0009,34.49,34.49,0,0,1-25.7022-10.7011c-6.9-7.2-10.4-16.1006-10.4-26.7012A36.3994,36.3994,0,0,1,136.7,10.3007Zm4.6,48.1036a27.7992,27.7992,0,0,0,20.9014,8.8,26.8205,26.8205,0,0,0,20.4013-8.9q8.3994-8.8506,8.4-21.9014a28.6271,28.6271,0,0,0-8.6006-20.8008,27.6752,27.6752,0,0,0-20.7011-8.8008,27.1669,27.1669,0,0,0-17.9014,6.6006,30.8689,30.8689,0,0,0-10.9,23.2012C132.8989,45.3037,135.6987,52.5039,141.2993,58.4043Z"/><path class="cls-5" d="M207.8969,72.5048V1.4h7.001V65.6045h25.001v6.9Z"/><path class="cls-5" d="M252.9966,10.3007A34.7494,34.7494,0,0,1,278.0981,0,35.1848,35.1848,0,0,1,303.6,10.4013a35.6546,35.6546,0,0,1,10.9,26.1016c0,10.1006-3.1,18.501-9.4,25.4014a35.1734,35.1734,0,0,1-27.1016,12.0009,34.4862,34.4862,0,0,1-25.7012-10.7011c-6.9-7.2-10.4013-16.1006-10.4013-26.7012A36.4024,36.4024,0,0,1,252.9966,10.3007Zm4.6005,48.1036a27.7992,27.7992,0,0,0,20.9014,8.8,26.8221,26.8221,0,0,0,20.4014-8.9q8.4009-8.8506,8.4-21.9014A28.6271,28.6271,0,0,0,298.7,15.6015a27.6752,27.6752,0,0,0-20.7012-8.8008,27.1669,27.1669,0,0,0-17.9014,6.6006,30.8723,30.8723,0,0,0-10.9,23.2012C249.1967,45.3037,251.9966,52.5039,257.5971,58.4043Z"/><path class="cls-5" d="M393.1987,38.4023c-.6,10.3008-4.3,18.8018-11.2,25.502s-15.3018,10.0009-25.3018,10.0009A34.5529,34.5529,0,0,1,330.895,63.2041c-6.9-7.2-10.3008-16.1006-10.3008-26.7012a36.0089,36.0089,0,0,1,11.1006-26.2022C338.7954,3.4,347.1958,0,357.5962,0c13.7011,0,25.1015,6.9013,31.8027,19.3017h-8.6006c-6.7-8.501-14.1016-12.501-23.6016-12.501a27.74,27.74,0,0,0-20.8017,8.8008,29.1413,29.1413,0,0,0-8.4,21.001q0,13.0518,8.4,21.9014a28.08,28.08,0,0,0,20.9014,8.7,27.3307,27.3307,0,0,0,17.5009-6.2,29.3564,29.3564,0,0,0,10.1006-16.3008H348.9966V38.4023Z"/><g class="cls-6"><path class="cls-7" d="M464.9565,36.624a32.4457,32.4457,0,0,1-1.1846,8.9492,30.8606,30.8606,0,0,1-4.083,8.8066,30.4021,30.4021,0,0,1-5.5566,6.1993,29.0879,29.0879,0,0,1-7.7393,4.6875,28.4572,28.4572,0,0,1-16.8242,1.414,29.1113,29.1113,0,0,1-14.9209-8.65A30.7561,30.7561,0,0,1,406.6313,39.98a31.2663,31.2663,0,0,1,3.9317-18.4434h0c.7148-1.1533,1.6884-2.6836,2.5244-3.748a31.6573,31.6573,0,0,1,2.9785-3.2618,29.27,29.27,0,0,1,7.5947-5.1933A28.4458,28.4458,0,0,1,440.936,7.11c11.9473,2.2246,21.416,12.0586,23.5606,24.4707a30.7784,30.7784,0,0,1,.46,5.043"/></g><g class="cls-8"><path class="cls-9" d="M407.0962,32.7841l-.0332.1075-.1065.32c.0254-.3047.0557-.6094.0908-.91l.042-.1006.0039-.0029.0567-.07.0039.0234h.001l.0127.1914-.0713.4414"/><path class="cls-10" d="M408.0005,28.708l-.0723.2734-.126.291-.0019-.0058-.1123.3144-.0616.0967-.2216.6465-.1065.2724a28.468,28.468,0,0,1,1.0234-4.041l-.0078.1153-.0244.1425.0489-.0136-.086.6484.041.0859-.2929,1.1739"/><path class="cls-11" d="M407.9292,31.22l-.1084.125-.043-.0293h-.0127c-.0488.0488-.0957.0977-.1435.1475l-.1387-.3106-.1494.1211.0263-.3545.168-.5664.0479-.1777.1142-.3828.1817-.2793.1543-.1446.1.1944.1767.1806-.0322.4912-.3408.9854"/><path class="cls-12" d="M425.4585,9.1923l-1.1416.5245-.2325.0713-.8486.4648-1.2842.8125.003.0049-.0557.0674.2754.0625.0185.0595-.1689.1475-.2568.0654-.25.1153-.12.1064.2207.0039-.2773.418.2578-.086.0664-.03-.0293.1533-.3613.2519-.91.7246-.2255.0352-.6309.26-.4307.5625.2813.2675-.2178.26-.4717.3477-.1592-.0039-.3222-.0176.1045.1806.1094.1026-.0235.0332-.2627.2363c-.7119.42-1.6533.99-2.3486,1.4375l-.4805.6231-1.0068,1.2392-.6651.4561-.2627.041-.25.4258-.4785.791-.414.5449-.0674.0527-.0557.0987-.2334.4912-.3437.8027-.1465.2168-.166.1192-.23.2539.1054-.5176.0459-.2207-.3027.2734-.1367-.03.2734-1.0762c.49-.9112,1.1719-2.11,1.7285-2.98l.16-.1777-.0215.0488.4463-.6192-.03.0372-.3857.46.0019-.042.8438-1.0527-.0586.0976.1943-.2714-.4472.51.1718-.2178.1172-.1416a30.2047,30.2047,0,0,1,3.6455-3.6611,32.9168,32.9168,0,0,1,4.9444-3.3681c.58-.293,1.3515-.6856,1.9414-.9551l.251-.1065.2412-.0781.1582-.0537-.2031.1269.2685-.0488.001.001.3164-.0811-.0733.0459-.7617.294-.5644.2168-.043.0156-.0312.0293-.1553.1152.1025-.0127-.0019.001.0107-.0058.4922-.2344v.039l-.3105.1817.6054-.25.7578-.3067.2735-.0429.1689.0439.0166.0449-.2646.1748"/><polyline class="cls-13" points="419.109 17.392 419.062 17.518 418.261 18.222 417.632 18.525 417.243 18.563 416.726 18.663 416.724 18.433 416.802 18.309 416.821 18.16 416.772 18.102 416.659 18.101 416.57 17.875 416.518 17.688 416.646 17.489 417.433 16.88 417.661 16.837 417.622 17.09 417.617 17.153 418.427 16.841 418.737 16.57 418.772 16.527 419.153 16.255 419.429 16.138 419.692 16.122 419.64 16.608 419.555 16.901 419.109 17.392"/><path class="cls-14" d="M434.0073,66.12l.0283.0058.2656.0332-.0312.0079-.0723-.002-.18-.0176-.2119-.03-.1552-.02-.0176-.0029-.06-.0078-.22-.043.0185.002-.1142-.0235.4355.0469.3135.0508"/><path class="cls-15" d="M436.5034,53.8173l-.15-.8193.1484-.7217.043-.0058.333.6386.0039.8457-.3779.0625m-1.2315-2.1064-.2783-.084.043-.3388-.0342-.3165-.1728-.5625.0273-.1328-.0029-.0166.0068-.1631.002-.2168.0332-.0078.0527.1924.04.0283.044.09.1816.2773-.0517.4258.0019.3565.0947.1123c.004.1191.0079.2382.0127.3564m1.0577-2.5225-.0313.0176-.6914-.2041.1719-.8135.0322-.0214.4522-.042.0566-.0518.1191.0371.0489.2236-.1582.8545m3.1836-21.5019-.001.3076-.1416.1475-1.9531.2109-.2081-.4424-1.7-.1836-.0351.0117-.7754.792-1.1338-.9589.1133-.12.3418.1446.293-.9951L434.8862,26l.0166-.0987.0957-.3945.0772-.291.3828-.0059.0351.1133.211.2344.03.083.0332.1514.0225.08.0332.2383.1191.0391.086.0215.123.039.3643.166.1348.1016.1269-.0615.252-.73.2539-.208.1826-.34c.12.0009.2422.0019.3642.0039l.1836.5927.0147.3623-.09.3321.043.0478.0859.041.1475.0831.3027.0332.8174.6035.1846.4033-.0068.0459m14.23-.457-.2617-.0469-.1875.15-.1768.123-.1162-.0879-.0517-.2793.4189-.2871.4707-.2851.1485.7617c-.08-.0156-.1631-.0313-.2442-.0488M445.28,29.1757l-.06.4053-.2.6817-.127,1.0019c-.3613-.0293-.7226-.0547-1.0879-.0791l-.3759-.5849-.1592-.5665.0674-.3232.1679-.4043.0489-.1074.0146-.042.0264-.0664-.18-.2539-.2109-.3125-.0967-.1621-.1319-.0215L442.32,27.64l-.0557-.32v-.0254l-.01-.0371-.0684-.3594-.01-.0547-.0039-.0332.0459-.5332.3125-.1894.1006-.1387.2774-.2-.0332-.167.5-.4941.6982.2324.5557.0791.2636.8564-.7382.1368.2041.4463.0546.19.0362.1875.0029.0195.3428.3516.4209.5527.2724.836-.2089.2m16.2724-2.957-.57.4951-.168-.4492.2754-.8848-.0381-.7441-.0693-.5.3106.3311.26,1.7519m3.335,8.6182-.002-.0156A31.2755,31.2755,0,0,0,460.354,20.622a32.94,32.94,0,0,0-4.4024-5.5507l-.0693-.0469-.19-.1426-.3975-.2246-.3223-.1582.0625-.2363-.0107-.0323-.0186-.0195-.9082-.8154-.1884-.1709-.1407-.1123-.3886-.2666.0449.0791-1.126-.836-.0928-.07-.26-.1357-.18-.1319.1514.1436.06.1221.2969.3056c-.2061-.0175-.4776-.04-.6856-.0517-.2871.0058-.6709.0156-.959.0283l.3164.4912-.8193-.2676-.206.1172.0068.1367.3584.4258-1.0791-.3906-.126.081c.1572.4131.3867.9581.5215,1.38l.3613.7774.16.539-.9805-.1289.4522-.5136-.6055-1.32-.0039-.1259-.89-1.0967-.3906-.35-.1846-.1426-.1943-.0508-.0195.0225-.13.373-.0674.0723-.0058.0185.1933.461.0684.7646-.0039.0069.36.3007.2178.2715.0273.0293c-.5224-.2-1.2158-.4746-1.7412-.667l-.9062-.1972-.0528-.0283-.1894.1464H445.07l.2695.2588c-.6025.06-1.4062.14-2.01.2061l-.253-.0518-1.38.1885-.0468.1211-.3369.3281-.2784.0039-.3437-.1943-.1055-.4365-.1494-.16-.3467-.084-.0967.1934.0372.3447.0742.0537-.2354.6231-.4551-.2305-.5185.3721-1.2363.7851-.03-.0127-.3867.1387-.8614-.6289.0147-.0371-.1065-.124-.0732-.4737.6758.1162.9062.0909.2852-.0235.1611-.4511.4453-.3956.0039-.122-.414-.1817-.3262-.1777-1.3213-.3008-.7207-.1777-.0273-.0254-1.2285-.2422-.9639-.3144-1.165.18-1.0206.1856-.1044.0469-1.044.5752-.9834.5869-.1426.17-.6445.8476-.1563.127-.6523.4756-.2236.0947-.0186.0235-.2822.0937L425.72,17.083l-.48.1718-.0029.003-.0186.0029h-.0117L424.79,18.37l-.2763.4375.1845.2871.17.7285.0928.0293.4424-.2285.3486.0664.4268-.4053.2324-.124.0654-.0869.44.3076-.1123.1016.041.0507.1318.15.2891.1455.3008.2061.1992.3389-.0264.1591.834-.2929.2734-.0137.2637-.2783.0225-.0137-.0205-.4873.6308-.6543.3565-.1152.0429-.1192.0489-.0009.1582-.295-.752-.289-.12-.6592-.043-.0527.6446-.3965.3418-.3906.5752-.5489.5048-.3574.0577-.1113.0273-.2207L431.6,15.23l.4922-.1591.4824-.1133.0888.1894.1309.1914-.6992.3672-.125.0752-.1182.2227-.499.5088-.3623.2627.081.6377.6749.5878.5869-.1552,1.44-.252.4375-.1006.5156-.1172.2285.0215.0332-.1152,1.05.2324-.1669.3789-.5215.1914-1.8535.2207-1.0118.2071-.1953.0312-.1074.3223-.1758.6289-.7763.1406-.0215.0137-.3086.1933-.3487.73-1.08.7324-1.5352.1953-1.4932-.0136.544-.4766.14-.3935-.1005-.1436-.0088-.0059-.4161-.3515-.3242-.1543-.41.2012-.3428.7871.0547.23.2383.168-.0391.5312-1.0615.2237-.1279.2646-.2334.1172c-.5909.5762-1.3848,1.3379-1.962,1.9278l-.6748.875-1.1445.039-.1572.5254.9433.2129-.0117.4023.0029.4395.0284.1748.166.293v.0068l-.08.5449-.5127.4326-.01.002-.249.0762-.499-.22-.3477-.0683-.5136.3818-.4678.2461-.2422.6231-.0566.19.1631,1.4267-.1075.8936.4951.2129.045-.0059.4492.1241.4726-.127,1.5254-.6045.1944-.2783.08-.5059.2579-.3408.0488-.5508.5693-.5888.1133-.2579.4815-.1181.1767-.7149.1338-.0468.29-.18.7579-.0645.0488.0176.1513-.0781.0147-.0908.251-.4991.8134.0274.127.5146-.0381.4151.586.2129.2011-.1329.1172.042.5342.2393.4766.4873.125,1.0684-.2784.0966-.2763.294-.4.0986.2754.2481.8056-.044.1094-.31.0244-.0214.461.0175.2627-.2441-.004-.7148.0157.0019.2236-.6035-.2588-.0752-.0449.0107-.1641.0088-.1045-.0947-.8125-.707-.6738-.7305-.082-.59.084-.6368.1308-.0478.5674.999,1.0938.4815,1.0068.664.0723,1.6885.6425,1.0527-.0078.1162.5772.0518.2168-.7148.2656-.3477.0459-.0254.1582-.584-.2334-.0615-.1611-.5264.3525-.2031.4131.0117.0635.0283.0361.0518.1728-.0029.64,1.31.084.3047-.0127.127.8379.6211.1308-.02.8623-.1582.8448.7315.4746.0205.0908-.6221.0986-.0205.3262-.0879.0459.0586h.0039l-.0039.0371-.0244.3-.1094.6416-.02.627-.2793.6-.3789-.1719-1.14.3623-.32.2022-.0859-.0362-.5674-.1064-.4687.24-1.1641-.415-.8-.0859-.2861-.5674-.6534-.0391-.3486.24-.2295,1.1973-.789.1582-.3643.1-1.0381-.6982-.0654-.0488-.4854-.13-1.27-.543.0381-.8174.0791-.1162-.0488-.1523-.01-.0264-.166-.38-.68-.21-.0107.0048-1.57.1426-.07.0283-1.1143.3536-.916.7275-.4483.7549-.9179-.4483-.0479-.1718-.7656.3447-.0078.1318-.4121.6406-.6358.9141-.0508.0762-.0039.0254-.1.13.0332.249.0039.5244.0557.4228-.3418.2608-.4746.54-.09.4854-.1709.9072-.1348.4277-.2549,1.377.2217.3437.1933.6817.1983.7324.1357.5664.04.0615-.1543,1.2862.0791.4013.8418,1.0528.7529.7861h.126l.6875.4434.5293.5546,1.2119.3262.0166-.0078.1328.0586.5039.2627c.4649-.1494,1.083-.3565,1.5479-.499l.4218-.4649-.0771-.081.1328-.1514.1982-.0107,1.212-.2217.26.5791-.0019.0654.0586.169.2929.2607.168-.1738.0781.0117.4678-.04.3594-.0342.0254.1679.249,1.0918-.0313.0674-.1836.5987.2491.4335c.039-.0039.0752-.0078.1152-.0126l.2705.4677.2568.1836.3926.0508.02.0049.6884,1.3486.5987,1.2422-.0733.4844.0322.7031.0831,1.5313.164.3789.1328.0644.251.0938.3877.7246.0166.05.2725.5068.0058.01.0283.0664.0547.1221.0743.1591.01.0215.001.0039.2363.6524.11.4756.0859.2089.2334.1026.2539.2568.4863.5342.03.03.1153.3593.0458.1221.0206.0606.1962.5234.004.0264.1357.2.1279.0527.1348.0762.0947-.0635.0567.0127.455-.252.0684-.09.5635-.2529c.2617-.5381.6152-1.252.91-1.77l.2617-.7647.044-.2061.0547.0088.332-.1552.1358-.4063.0146-.4912-.1025-.0586-.0948-.4014-.0156-.07.0664-.3828.0254-.1435.8887-.5752.8594-1.1934-.1309-.1172.124-.9121.1289-.9228-.165-.1075-.207-1.5371.1035-.4912.1152-.1015c.66-.7041,1.5439-1.6407,2.2188-2.3321l1.371-1.4111.1866-.4893.9326-1.0332.0508-.2177.0351-.1758.0205-.4131.0371-.0313-.0722-.6279-.0391.0049-.1055-.07-.3847.1445-.0078.0215-.4444.1738-1.12.3985-.1738-.125-.417-.3965-.2676-.086-.0459-.1484v-.0078l-.3867-.544-.0938-.0732.0215-.1982-.1142-.2276-1.1446-1.5742-.5127-.4814-.5458-1.462-.6475-1.9609-.083-.1582.0664-.7051c.41.66.959,1.5352,1.3623,2.1992l.0029-.0039.0938.1036.4,1.0019.0371.0977.0468.0771.1377.1191c.3526.6338.8291,1.4756,1.1719,2.1153l.4219,1.4228,1.3584-.3144c.81-.3711,1.8887-.8662,2.7031-1.2324l1.5928-.6954.8838-.3242.2041-1.498-1.2871-1.5625-.5987-.2422-.7763.2754c-.5616-.7891-1.3076-1.8457-1.8867-2.6211l-.004-.1113.09-.0909.1709-.14.3525.2969,1.05.624.0948.21-.1211.4921c.5761.3731,1.3506.8575,1.917,1.2422.6816-.0019,1.5839-.0078,2.2636-.0019l1.26.3691.7715.8945.3262.8262.3027.3526.4062.4072c.0147.8721.045,2.0351.0313,2.9082l.3359,1.2617-.208,1.9551.4375.0078h.0029c.0059-.0176.0127-.0371.0176-.0566l.1963-.1954c.44-.4785,1.0332-1.1132,1.4678-1.5976l.0508-.5-.166-.7383,1.4462-1.2471c.6348-.3691,1.4864-.86,2.1182-1.2373.06.9629.1416,2.2481.1514,3.2149l.0019.51.3555.2247.2607-.1348.2686.1719-.3545,1.1191-.4893,1.2568c.07.03.1416.0586.21.087l.3711-.7334.7217-.1827.0781,1.2217-.0449.2686c.1.0527.1953.1045.29.1582l.5557-.6328.22-.2442.1475-.4472.6162-1.2022-.0274-.1885-.2158-.5039.2373-1.665.26-.2168.0664.5517-.2627.8868-.0049.3095.3477.3467.2226-.4277.1289-.211.3291-1.0263.0342-.1924.1377.084.5293.2715c.26-.4248.6231-.9786.8652-1.4161l.6172-1.59.0166-.1611.0166-.1133.042-.4151-.0117-.1269-.0459-1.7119-.0078-.2744.1357-.0762h.0039l.1377-.5977.0215-.0683-.001-.1778.002-.0566-.0137-.1133-.0674.0332-.1689-.4248-.0869-.4072-.1914-.6895.2051-.2714.0009.0058.0157-.0312.0048-.0176.0039-.0449.0284-.1993.0019-.0156v.0039l.0586-.0879.13.2911.0732,1.11.043-.0859.082-.6006.2393,1.2461-.01.7539.0108.4638-.1377,1.5752-.0274.1895.0118.1543.1123-.1875.1455-1.1895.042-.3925-.0215-.6944-.01-1.3252.0479-.2265.0185-.2227.0166-.5342.0557.4815"/><polyline class="cls-16" points="425.206 29.354 425.254 28.315 425.625 28.329 425.778 29.11 425.206 29.354"/><polyline class="cls-17" points="422.698 22.981 422.508 24.081 422.36 24.235 422.215 24.321 422.183 24.333 422.133 24.403 421.764 24.519 421.681 24.563 421.592 24.622 421.365 24.805 420.655 24.591 420.637 24.587 420.407 24.618 420.373 24.453 420.358 24.274 420.693 22.573 420.914 22.304 421.052 22.134 421.094 22.075 420.639 21.63 420.547 21.62 420.351 20.36 421.39 19.592 421.67 20.522 421.861 21.784 422.349 22.023 422.556 22.068 422.572 22.069 422.794 22.307 422.73 22.735 422.726 22.898 422.698 22.981"/><path class="cls-18" d="M464.8432,39.7138a3.7659,3.7659,0,0,1-.2187.6123l-.0889.7188-.0664-.0674.1963-1.625.1543-.6953a5.9232,5.9232,0,0,0,.124-.7256l.001-.04-.1084,1.9062.0068-.084"/><polyline class="cls-19" points="441.369 53.6 441.355 53.626 440.906 55.354 440.357 56.118 440.351 56.161 439.937 57.079 439.597 57.815 439.582 57.829 439.314 57.999 439.063 57.828 438.814 57.699 438.775 57.46 438.748 56.44 438.919 56.304 439.165 56.047 439.033 55.587 438.993 55.356 438.975 55.087 439.317 54.534 439.413 54.349 440.244 54.141 441.088 53.221 441.171 53.159 441.707 52.612 441.808 52.742 441.369 53.6"/><polyline class="cls-20" points="452.533 47.349 452.442 47.134 453.115 45.639 453.221 45.751 453.297 45.965 453.167 46.917 452.533 47.349"/><polyline class="cls-21" points="456.942 50.308 457.06 49.599 457.12 48.858 457.405 47.454 457.601 47.409 457.714 47.555 457.889 48.641 457.177 50.235 456.942 50.308"/><path class="cls-22" d="M455.1606,54.0654l-.3525.1016c.3437-1.05.74-2.4717.9873-3.5508.0713-.6.1953-1.3946.24-1.9961l-.0058-.5156.3984-.2676-.0088.2578.1123.5762.0615.93c-.0293.6074-.0507,1.4189-.1181,2.0234l-.1162.8711-1.1983,1.57"/><path class="cls-23" d="M456.3725,56.0263a8.08,8.08,0,0,0-.5156-.6738l-.15.06-.124-.8057-.1514.07-.0957-.4492.2354-.2646a.122.122,0,0,0,.0215.0127l.3125-.2188c.0527.291.1425.6729.1728.9668l.2061-.0732a10.6731,10.6731,0,0,1,.2207,1.2275c-.044.0488-.0889.0986-.1319.1484"/><path class="cls-24" d="M459.1655,51.8271l-1.01,1.2012-1.123,1.0127c-.0254-.0215-.0518-.044-.0781-.0645l.1513-.3545-.1738-.1709-.0615.0108-.1856-.125.0147-.1738.0176-.0743.0293-.0722.082-.22.9521-1.6806,1.0264-.4414c.3633-.3125.8564-.7188,1.2109-1.04l.06.2315-.6084,1.4062.0147.0215-.01.07-.3086.4629"/><polyline class="cls-25" points="460.858 48.715 460.586 48.968 460.411 49.091 460.741 48.492 461.22 47.789 461.381 47.776 460.858 48.715"/><polyline class="cls-26" points="462.089 46.606 462.09 46.597 461.973 46.658 461.756 47.126 461.662 47.085 462.113 45.799 462.284 45.426 462.741 44.882 462.775 45.239 462.089 46.606"/><polyline class="cls-27" points="463.284 43.095 463.089 43.714 462.976 43.475 463.254 42.567 463.398 42.64 463.399 42.702 463.358 42.923 463.284 43.095"/><path class="cls-28" d="M461.2426,48.9843l-.1425.1768h-.0078l.0214-.2383.0967-.23.0205-.0517c.0186-.0381.0362-.0762.0547-.1152l.1719-.1905.0088.0742-.0215.1582-.2022.417"/><path class="cls-29" d="M461.5493,48.4677l.0615-.2207.125-.5507c.0684-.1543.1348-.3116.2012-.4688.03.041.0615.082.0918.1231l-.03.1406-.042.3066-.0576.1631-.1182.3652-.2314.1416"/><polyline class="cls-30" points="460.764 50.653 460.324 51.16 460.286 51.016 460.732 49.896 460.959 49.749 461.178 49.647 461.179 49.649 461.252 49.54 461.168 49.997 460.764 50.653"/><polyline class="cls-31" points="457.83 54.321 457.336 54.825 457.29 54.451 457.975 53.458 458.592 52.78 458.591 52.873 458.596 52.89 458.652 53.251 458.457 53.62 457.83 54.321"/><path class="cls-32" d="M445.7143,10.6728l-.2881.1211-.7109.1465-.7578.082-.1738.5557-.1573.3818-.0459.1875.1758.2071.2744.4043-.0048.01h.0029l.0547.24-.7188-.125-.5781-.1114-.669-.5254-.0625-.1318.3-.9668c.1738-.2588.4218-.6.582-.87l.333.1152.1045.0176.8291-.043c.4541.0049,1.0586.0088,1.5107.0205l.2871.2608-.2871.0234"/><polyline class="cls-33" points="433.192 8.971 432.137 8.847 432.593 9.122 433.168 9.439 432.976 9.683 432.123 9.629 432.035 9.528 432.022 9.313 431.635 9.348 431.593 9.537 430.99 10.013 430.734 10.098 430.233 9.599 430.414 9.411 430.222 9.476 430.09 9.53 430.068 9.534 430.058 9.534 429.891 9.565 429.872 9.546 429.792 9.507 429.627 9.329 429.612 9.257 429.596 9.241 429.63 9.14 429.648 9.101 429.802 8.929 429.901 8.843 430.003 8.751 430.28 8.665 430.522 8.608 430.689 8.552 430.936 8.641 430.953 8.649 431.011 8.656 431.395 8.632 431.566 8.681 431.782 8.719 431.885 8.743 431.872 8.556 431.936 8.495 431.977 8.456 432.981 8.339 434.051 8.466 434.06 8.647 433.192 8.971"/><polyline class="cls-34" points="439.339 8.643 438.693 8.302 438.792 8.267 438.881 8.207 439.922 8.282 440.134 8.476 439.339 8.643"/><path class="cls-35" d="M450.395,10.8535l.3184.2441c-.2959-.14-.6885-.331-.9874-.4629l-.4921-.21-.1592-.0977-.1846-.1211-.11-.07c-.0625-.043-.125-.0859-.19-.1289l-.0986-.1074h.0322l-.333-.22-.0723-.0967-.1211-.0889,1.5088.8506.2637.1338.5693.3408.0371.0234.0186.0118v-.001"/><polyline class="cls-36" points="451.676 11.618 451.673 11.63 451.74 11.697 451.319 11.524 450.967 11.274 450.83 11.136 450.481 10.868 450.748 11.017 451.01 11.169 451.33 11.362 451.676 11.618"/><path class="cls-37" d="M447.7544,64.3525l-.585.2031-.7344.2569-.4638.1631-.0391.0058-.0088.0029-.0732.0088-.5078.1045-.1524.0283-.042.0049-.0371-.0185-.0713.0156.0274-.0156.0918-.0293-.1036.0156.252-.207.0371-.0469,1.7842-.7656.4365-.209-.2.0439-.2617.0518-.1582.02,1.2227-.6777.56-.3291-.1016-.1123-.1923-.0264-.0577-.0088-.833.3086-.2871.1221.01-.0967.0547-.084-.3994.125-.2022-.0586-.2031.0137.6142-.4463c.5635-.3642,1.3321-.8213,1.876-1.2129.7578-.5732,1.7676-1.3388,2.4951-1.9541.3662-.0605.8526-.1426,1.22-.2031l.9746-.6807.1972-.0967.1182.05.0029.0048.4483-.3144.3252-.25.2509-.2227.1387-.0088.0967.0176-.0107.0322.0312.0469-.2051.2871-.1045.1543.7276-.5449.4111-.3145.0732.004-.0107.2363-.11.2783-.0557.0566-.2.2315-.4365.418-.0869.0332-.1661.1191-.0546.043-.2344.3144-.47.544-.0206.02.1094-.04.0176-.0088.4561-.3691.57-.4678.3789-.3525.3623-.2607-.127.1494-.501.5068-.372.3457-.1377.1494-.1328.1289-.0635.085-.59.5156-.4189.3467-.0566.0644-.1924.1661-.4043.3476-.374.3008-.1543.1191-1.4649,1.0684-.1924.1123-.7265.4258-1.4014.7373-1.1816.4785"/><polyline class="cls-38" points="456.497 56.55 456.487 56.555 456.449 56.583 456.378 56.609 456.194 56.751 456.275 56.452 456.428 56.331 456.42 56.389 456.586 56.229 456.919 55.985 457.031 55.895 457.029 55.901 457.091 55.892 457.103 55.882 456.926 56.216 456.497 56.55"/><polyline class="cls-39" points="455.745 59.099 455.908 58.878 456.028 58.747 456.218 58.552 456.334 58.426 456.939 57.749 456.899 57.777 457.033 57.572 456.944 57.661 456.672 57.895 456.39 58.145 456.782 57.619 457.127 57.095 457.3 56.927 457.548 56.73 457.803 56.341 458.167 55.811 458.19 55.589 458.171 55.419 458.24 55.313 458.77 54.495 459.127 53.805 459.339 53.59 459.173 54.198 458.844 54.747 458.622 55.142 458.642 55.112 458.921 54.815 459.213 54.503 459.255 54.485 458.969 54.985 458.411 55.948 458.268 56.118 458.343 56.097 458.31 56.19 458.182 56.362 458.054 56.518 458.035 56.548 458.038 56.543 456.999 57.758 456.331 58.485 456.147 58.69 456.087 58.761 456.086 58.763 456.089 58.761 456.055 58.798 455.745 59.099"/><path class="cls-40" d="M458.937,52.9345l-.1211-.1914.0029-.0293V52.706l.002-.0019c.0576-.086.1142-.1729.1718-.26l.23.041.1817.0371-.1192.2422-.3476.17"/><polyline class="cls-41" points="458.595 53.747 458.572 53.649 458.753 53.338 459.023 53.106 458.87 53.379 458.871 53.386 458.595 53.747"/><path class="cls-42" d="M459.4516,53.0586l-.2275.32c-.0195-.0371-.0361-.0752-.0566-.1123l.1738-.2461.19-.2774.0811.0528-.0547.0957-.0537.0918-.0528.0752"/><polyline class="cls-43" points="458.266 54.947 458.442 54.645 458.341 54.759 458.226 54.767 458.124 54.622 458.343 54.39 458.347 54.383 458.395 54.502 458.538 54.29 458.66 54.138 458.732 54.1 458.66 54.286 458.609 54.37 458.584 54.452 458.61 54.419 458.669 54.458 458.559 54.654 458.266 54.947"/><polyline class="cls-44" points="457.432 57.299 457.575 57.132 457.637 57.065 457.552 57.17 457.432 57.299"/><polyline class="cls-45" points="457.288 57.492 457.159 57.635 457.375 57.386 457.511 57.234 457.52 57.223 457.518 57.226 457.6 57.132 457.673 57.045 457.344 57.425 457.288 57.492"/><polyline class="cls-46" points="442.613 66.358 442.902 66.292 443.216 66.235 443.262 66.204 443.641 66.118 443.677 66.116 443.738 66.101 444.235 65.976 444.426 65.927 445.156 65.697 445.316 65.655 444.897 65.796 443.941 66.081 443.919 66.091 443.845 66.124 443.407 66.235 442.613 66.358"/><path class="cls-47" d="M442.5083,66.3213l-.2.0234-.55.0547-.042-.0039-.4883.0351-.1.002-.1113.0078-.4825.02-.0966-.0029.09-.0147.0381-.0039.1084-.0224,1.3789-.1114c.3066-.0254.7168-.0537,1.0234-.0888l-.0009.0009.0429-.0048h.003l.038-.004-.4121.0889-.2392.0235"/><polyline class="cls-48" points="443.208 65.653 443.08 65.682 442.909 65.694 442.865 65.688 442.898 65.675 442.9 65.651 443.523 65.458 443.849 65.381 444.665 65.204 444.287 65.397 443.731 65.542 443.208 65.653"/><polyline class="cls-49" points="443.419 8.78 443.282 8.774 443.194 8.741 443.1 8.733 442.58 8.609 442.576 8.802 442.573 8.8 442.573 8.811 442.536 8.874 441.942 8.843 441.742 8.771 441.727 8.755 441.705 8.747 441.71 8.752 441.538 8.663 441.307 8.575 441.205 8.489 441.104 8.546 441.005 8.635 440.975 8.696 440.907 8.694 440.905 8.693 440.803 8.698 440.462 8.554 440.372 8.434 440.431 8.45 440.639 8.524 440.755 8.567 440.922 8.317 440.931 8.316 440.945 8.259 441.085 8.236 441.09 8.226 441.329 8.155 441.42 8.126 441.532 8.036 441.636 8.08 441.639 8.081 441.666 8.247 441.687 8.395 441.815 8.528 441.829 8.533 441.875 8.548 441.913 8.558 442.162 8.63 442.212 8.657 442.311 8.667 442.255 8.407 442.951 8.538 443.132 8.624 443.164 8.622 443.159 8.577 443.154 8.571 443.152 8.546 443.143 8.499 443.347 8.583 443.419 8.78"/><polyline class="cls-50" points="420.308 22.963 420.197 23.044 420.201 23.091 419.972 23.628 419.815 24.229 419.628 24.38 419.314 24.393 419.247 24.499 418.548 24.489 418.487 24.325 418.732 23.09 418.943 22.919 419.707 22.219 419.939 22.122 420.188 21.964 420.215 21.966 420.329 22.101 420.434 22.753 420.308 22.963"/><polyline class="cls-51" points="420.839 18.858 420.706 18.588 420.924 18.165 420.971 18.181 420.923 18.568 420.935 18.778 420.839 18.858"/><path class="cls-52" d="M422.5024,19.2119l.0361-.34.0831-.0908c.0664-.0107.1337-.0215.205-.0322l.0362.2226-.36.24"/><path class="cls-53" d="M441.8784,56.5537l-.208-.0362c.0058-.0185.0137-.039.0205-.0586l.2236.003c-.0136.0293-.0234.0615-.0361.0918"/></g><path class="cls-5" d="M410.394,10.3007A34.75,34.75,0,0,1,435.4956,0a35.1845,35.1845,0,0,1,25.5019,10.4013,35.6546,35.6546,0,0,1,10.9,26.1016c0,10.1006-3.1,18.501-9.4,25.4014A35.1732,35.1732,0,0,1,435.396,73.9052a34.4884,34.4884,0,0,1-25.7022-10.7011c-6.9-7.2-10.4-16.1006-10.4-26.7012A36.4024,36.4024,0,0,1,410.394,10.3007Zm4.6006,48.1036a27.7992,27.7992,0,0,0,20.9014,8.8,26.8218,26.8218,0,0,0,20.4013-8.9q8.3994-8.8506,8.4-21.9014a28.6271,28.6271,0,0,0-8.6006-20.8008A27.675,27.675,0,0,0,435.396,6.8007a27.1669,27.1669,0,0,0-17.9014,6.6006,30.8689,30.8689,0,0,0-10.9,23.2012C406.5942,45.3037,409.394,52.5039,414.9946,58.4043Z"/></g></g></g></svg>